<svg width="514" height="100" viewBox="0 0 514 190" fill="none" xmlns="http://www.w3.org/2000/svg">
<g clip-path="url(#clip0_619_2087)">
<path d="M246.422 42.4834C246.422 42.3768 246.502 42.2969 246.608 42.2969H283.841C303.883 42.2969 313.158 49.5461 313.158 63.1918C313.158 71.3473 308.054 77.0108 303.47 78.9963C303.31 79.063 303.323 79.2762 303.483 79.3295C309.706 81.4616 315.503 86.8719 315.503 96.24C315.503 109.779 306.548 119.054 285.12 119.054H246.608C246.502 119.054 246.422 118.974 246.422 118.867V42.4834ZM285.12 73.6393C290.877 73.6393 293.542 70.1213 293.542 65.5372C293.542 61.2729 291.09 57.8615 283.841 57.8615H266.224C266.118 57.8615 266.038 57.9414 266.038 58.0481V73.4528C266.038 73.5594 266.118 73.6393 266.224 73.6393H285.12ZM285.547 103.489C293.009 103.489 295.888 99.758 295.888 94.8541C295.888 89.6304 292.583 86.0057 286.399 86.0057H266.224C266.118 86.0057 266.038 86.0857 266.038 86.1923V103.303C266.038 103.409 266.118 103.489 266.224 103.489H285.547Z" fill="#10133E"/>
<path d="M356.334 113.309C356.334 113.123 356.094 113.056 356.001 113.216C353.535 117.014 347.779 120.119 340.663 120.119C327.976 120.119 320.407 114.362 320.407 103.701C320.407 86.4044 342.382 86.3245 356.147 86.4311C356.254 86.4311 356.334 86.3378 356.334 86.2312C356.174 80.701 353.682 77.6893 345.993 77.6893C339.557 77.6893 334.053 79.6749 329.069 81.5805C328.989 81.6071 328.896 81.5805 328.843 81.5138L321.886 70.8132C321.833 70.7199 321.846 70.6133 321.94 70.56C325.871 68.0814 335.079 63.6172 348.232 63.6172C370.406 63.6172 375.097 74.0647 375.097 89.5227V118.866C375.097 118.973 375.017 119.053 374.91 119.053H356.52C356.414 119.053 356.334 118.973 356.334 118.866V113.309ZM339.17 102.529C339.17 106.153 341.729 108.392 346.526 108.392C353.029 108.392 356.334 104.341 356.334 98.9041V95.2528C356.334 95.1462 356.254 95.0662 356.147 95.0662C347.685 94.973 339.17 96.079 339.17 102.529Z" fill="#10133E"/>
<path d="M388.103 95.068V79.3702C388.103 79.2636 388.023 79.1836 387.916 79.1836H378.588C378.481 79.1836 378.401 79.1037 378.401 78.997V64.8716C378.401 64.765 378.481 64.6851 378.588 64.6851H387.916C388.023 64.6851 388.103 64.6051 388.103 64.4985V49.7334C388.103 49.6268 388.183 49.5469 388.289 49.5469H406.679C406.785 49.5469 406.865 49.6268 406.865 49.7334V64.4985C406.865 64.6051 406.945 64.6851 407.052 64.6851H421.071C421.177 64.6851 421.257 64.765 421.257 64.8716V78.997C421.257 79.1037 421.177 79.1836 421.071 79.1836H407.052C406.945 79.1836 406.865 79.2636 406.865 79.3702V95.068C406.865 101.997 407.825 105.942 413.262 105.942C415.82 105.942 418.459 105.076 419.152 104.836C419.245 104.796 419.365 104.863 419.392 104.956L423.03 116.789C423.056 116.869 423.03 116.949 422.963 116.989C422.27 117.482 417.899 120.334 409.624 120.334C393.1 120.334 388.089 110.846 388.089 95.068H388.103Z" fill="#10133E"/>
<path d="M467.205 112.097C467.205 111.91 466.952 111.844 466.859 112.004C464.607 115.895 460.129 120.119 451.427 120.119C434.69 120.119 428.4 109.139 428.4 92.6146V64.8702C428.4 64.7635 428.48 64.6836 428.587 64.6836H447.083C447.19 64.6836 447.27 64.7635 447.27 64.8702V92.6146C447.27 99.3575 449.095 104.528 454.786 105.474C461.342 106.553 467.205 101.157 467.205 94.5202V64.8835C467.205 64.7769 467.285 64.6969 467.392 64.6969H485.888C485.995 64.6969 486.075 64.7769 486.075 64.8835V118.88C486.075 118.987 485.995 119.066 485.888 119.066H467.392C467.285 119.066 467.205 118.987 467.205 118.88V112.11V112.097Z" fill="#10133E"/>
<path d="M494.603 110.418C494.603 104.874 498.334 100.93 503.877 100.93C509.421 100.93 513.152 104.874 513.152 110.418C513.152 115.961 509.314 119.906 503.877 119.906C498.44 119.906 494.603 115.961 494.603 110.418Z" fill="#00FF9D"/>
<path d="M343.328 137.219C350.364 137.219 355.934 141.576 355.747 149.638H332.4C332.733 154.836 336.904 158.927 343.887 158.927C349.377 158.927 351.67 156.301 352.696 155.129L354.295 155.648C352.935 157.434 349.977 160.286 343.887 160.286C335.025 160.286 330.854 154.756 330.854 148.759C330.854 142.762 335.026 137.232 343.328 137.232V137.219ZM354.201 148.333C354.201 143.135 350.164 138.578 343.328 138.578C336.491 138.578 332.4 143.122 332.4 148.333H354.201Z" fill="#7C7C7C" stroke="#7C7C7C" stroke-width="0.5"/>
<path d="M360.864 137.687H362.37V143.87C363.116 141.671 365.928 137.207 372.818 137.207C379.707 137.207 383.558 141.191 383.558 148.414V159.808H382.052V148.414C382.052 143.444 379.707 138.566 372.724 138.566C365.742 138.566 362.37 143.67 362.37 148.174V159.794H360.864V137.673V137.687Z" fill="#7C7C7C" stroke="#7C7C7C" stroke-width="0.5"/>
<path d="M400.522 137.219C407.558 137.219 413.128 141.576 412.942 149.638H389.595C389.928 154.836 394.099 158.927 401.082 158.927C406.572 158.927 408.864 156.301 409.89 155.129L411.489 155.648C410.13 157.434 407.171 160.286 401.082 160.286C392.22 160.286 388.049 154.756 388.049 148.759C388.049 142.762 392.22 137.232 400.522 137.232V137.219ZM411.396 148.333C411.396 143.135 407.358 138.578 400.522 138.578C393.686 138.578 389.595 143.122 389.595 148.333H411.396Z" fill="#7C7C7C" stroke="#7C7C7C" stroke-width="0.5"/>
<path d="M418.046 137.687H419.592V142.791C420.245 140.778 422.217 137.207 428.453 137.207C429.533 137.207 430.652 137.354 431.358 137.54V138.899C430.612 138.753 429.44 138.566 428.36 138.566C421.377 138.566 419.592 143.204 419.592 147.708V159.808H418.046V137.687Z" fill="#7C7C7C" stroke="#7C7C7C" stroke-width="0.5"/>
<path d="M432.811 148.746C432.811 141.803 438.207 137.219 445.563 137.219C451.613 137.219 454.985 140.031 456.81 144.068V137.698H458.316V158.42C458.316 167.842 453.119 171.08 446.083 171.08C439.047 171.08 435.822 168.308 434.65 166.855L435.969 165.963C437.661 167.695 440.42 169.707 446.096 169.707C452.559 169.707 456.837 166.656 456.837 158.407V153.436C455.011 157.474 451.64 160.286 445.59 160.286C438.234 160.286 432.837 155.688 432.837 148.759L432.811 148.746ZM456.81 148.746C456.81 143.255 452.493 138.578 445.563 138.578C438.634 138.578 434.316 143.269 434.316 148.746C434.316 154.223 438.674 158.913 445.563 158.913C452.453 158.913 456.81 154.223 456.81 148.746Z" fill="#7C7C7C" stroke="#7C7C7C" stroke-width="0.5"/>
<path d="M465.353 169.708C468.911 169.708 470.27 167.602 473.841 160.1L462.314 137.699H464.007L474.694 158.514L485.382 137.699H487.074L475.68 159.82C472.216 166.576 470.856 171.067 465.366 171.067V169.708H465.353Z" fill="#7C7C7C" stroke="#7C7C7C" stroke-width="0.5"/>
<path d="M34.6465 74.2825V129.852C34.6465 142.296 41.2848 153.803 52.0633 160.025L100.185 187.816C110.964 194.037 124.24 194.037 135.03 187.816L183.152 160.025C193.93 153.803 200.569 142.296 200.569 129.852V74.2825C200.569 61.8386 193.93 50.3315 183.152 44.1095L135.03 16.3305C124.252 10.1086 110.975 10.1086 100.185 16.3305L52.0633 44.1095C41.2848 50.3315 34.6465 61.8386 34.6465 74.2825Z" fill="#14133F"/>
<g opacity="0.65">
<path fill-rule="evenodd" clip-rule="evenodd" d="M116.001 179.854L115.932 101.074L120.142 101.07L120.212 179.851L116.001 179.854Z" fill="white"/>
<path fill-rule="evenodd" clip-rule="evenodd" d="M116.649 102.903L48.208 63.7206L50.3 60.0664L118.741 99.2484L116.649 102.903Z" fill="white"/>
<path fill-rule="evenodd" clip-rule="evenodd" d="M186.725 63.7145L118.746 102.896L116.644 99.2484L184.622 60.0664L186.725 63.7145Z" fill="white"/>
<path fill-rule="evenodd" clip-rule="evenodd" d="M117.464 20.082L187.779 60.7119V141.992L117.464 182.633L47.1484 141.992V60.7119L117.464 20.082ZM51.3591 63.1419V139.562L117.464 177.77L183.569 139.562V63.1419L117.464 24.9451L51.3591 63.1419Z" fill="white"/>
</g>
<path d="M158.149 83.2098C154.252 81.3131 148.203 81.2322 140.663 81.3594C134.21 81.475 129.792 81.7179 128.3 81.7642C122.24 81.9839 119.094 85.5922 118.227 87.8126C117.348 90.0562 112.387 104.825 111.959 108.028C111.404 112.215 112.491 115.117 117.683 115.117C125.617 115.117 145.728 87.5119 155.42 85.0833C159.363 84.1003 160.89 85.5806 162.116 87.3847C161.746 85.9622 160.555 84.3663 158.138 83.1982L158.149 83.2098Z" fill="url(#paint0_linear_619_2087)"/>
<path d="M116.249 115.037C112.282 114.528 111.461 111.798 111.958 108.028C112.386 104.825 117.509 90.1026 118.226 87.8127C124.541 67.6435 126.796 51.7185 127.131 50.2498C129.548 39.9338 118.562 34.9494 109.599 48.1565C102.255 58.9813 75.4591 97.8626 72.9726 102.963C70.8331 107.357 72.9726 115.037 80.8252 115.037C92.4133 115.037 116.26 115.037 116.26 115.037H116.249Z" fill="#00FF9D"/>
<path d="M116.365 115.048C117.984 115.233 119.083 115.129 121.188 113.926C130.486 108.618 146.943 87.2456 155.432 85.083C159.445 84.0652 161.017 85.7306 161.977 87.1531C165.054 91.6981 162.428 97.3302 159.653 101.517C142.051 128.093 126.091 149.43 118.759 158.185C113.185 164.846 102.348 162.915 106.327 150.344C107.564 146.435 116.365 115.036 116.365 115.036V115.048Z" fill="url(#paint1_linear_619_2087)"/>
<path d="M186.037 147.562C189.351 147.562 192.037 144.876 192.037 141.562C192.037 138.249 189.351 135.562 186.037 135.562C182.723 135.562 180.037 138.249 180.037 141.562C180.037 144.876 182.723 147.562 186.037 147.562Z" fill="#ADADBC"/>
<path fill-rule="evenodd" clip-rule="evenodd" d="M186.037 145.878C188.421 145.878 190.353 143.946 190.353 141.562C190.353 139.179 188.421 137.247 186.037 137.247C183.654 137.247 181.721 139.179 181.721 141.562C181.721 143.946 183.654 145.878 186.037 145.878ZM192.037 141.562C192.037 144.876 189.351 147.562 186.037 147.562C182.723 147.562 180.037 144.876 180.037 141.562C180.037 138.249 182.723 135.562 186.037 135.562C189.351 135.562 192.037 138.249 192.037 141.562Z" fill="#ADADBC"/>
<path d="M118.037 186.859C121.351 186.859 124.037 184.173 124.037 180.859C124.037 177.546 121.351 174.859 118.037 174.859C114.723 174.859 112.037 177.546 112.037 180.859C112.037 184.173 114.723 186.859 118.037 186.859Z" fill="#ADADBC"/>
<path fill-rule="evenodd" clip-rule="evenodd" d="M118.037 185.175C120.421 185.175 122.353 183.243 122.353 180.859C122.353 178.476 120.421 176.544 118.037 176.544C115.654 176.544 113.721 178.476 113.721 180.859C113.721 183.243 115.654 185.175 118.037 185.175ZM124.037 180.859C124.037 184.173 121.351 186.859 118.037 186.859C114.723 186.859 112.037 184.173 112.037 180.859C112.037 177.546 114.723 174.859 118.037 174.859C121.351 174.859 124.037 177.546 124.037 180.859Z" fill="#ADADBC"/>
<path d="M50.0371 147.57C53.3508 147.57 56.0371 144.884 56.0371 141.57C56.0371 138.257 53.3508 135.57 50.0371 135.57C46.7234 135.57 44.0371 138.257 44.0371 141.57C44.0371 144.884 46.7234 147.57 50.0371 147.57Z" fill="#ADADBC"/>
<path fill-rule="evenodd" clip-rule="evenodd" d="M50.0371 145.886C52.4206 145.886 54.3528 143.954 54.3528 141.57C54.3528 139.187 52.4206 137.255 50.0371 137.255C47.6536 137.255 45.7214 139.187 45.7214 141.57C45.7214 143.954 47.6536 145.886 50.0371 145.886ZM56.0371 141.57C56.0371 144.884 53.3508 147.57 50.0371 147.57C46.7234 147.57 44.0371 144.884 44.0371 141.57C44.0371 138.257 46.7234 135.57 50.0371 135.57C53.3508 135.57 56.0371 138.257 56.0371 141.57Z" fill="#ADADBC"/>
<path d="M50.0371 69C53.3508 69 56.0371 66.3137 56.0371 63C56.0371 59.6863 53.3508 57 50.0371 57C46.7234 57 44.0371 59.6863 44.0371 63C44.0371 66.3137 46.7234 69 50.0371 69Z" fill="#ADADBC"/>
<path fill-rule="evenodd" clip-rule="evenodd" d="M50.0371 67.3157C52.4206 67.3157 54.3528 65.3835 54.3528 63C54.3528 60.6165 52.4206 58.6843 50.0371 58.6843C47.6536 58.6843 45.7214 60.6165 45.7214 63C45.7214 65.3835 47.6536 67.3157 50.0371 67.3157ZM56.0371 63C56.0371 66.3137 53.3508 69 50.0371 69C46.7234 69 44.0371 66.3137 44.0371 63C44.0371 59.6863 46.7234 57 50.0371 57C53.3508 57 56.0371 59.6863 56.0371 63Z" fill="#ADADBC"/>
<path d="M118.037 29.8906C121.351 29.8906 124.037 27.2043 124.037 23.8906C124.037 20.5769 121.351 17.8906 118.037 17.8906C114.723 17.8906 112.037 20.5769 112.037 23.8906C112.037 27.2043 114.723 29.8906 118.037 29.8906Z" fill="#ADADBC"/>
<path fill-rule="evenodd" clip-rule="evenodd" d="M118.037 28.2064C120.421 28.2064 122.353 26.2741 122.353 23.8906C122.353 21.5071 120.421 19.5749 118.037 19.5749C115.654 19.5749 113.721 21.5071 113.721 23.8906C113.721 26.2741 115.654 28.2064 118.037 28.2064ZM124.037 23.8906C124.037 27.2043 121.351 29.8906 118.037 29.8906C114.723 29.8906 112.037 27.2043 112.037 23.8906C112.037 20.5769 114.723 17.8906 118.037 17.8906C121.351 17.8906 124.037 20.5769 124.037 23.8906Z" fill="#ADADBC"/>
<path d="M186.037 68C189.351 68 192.037 65.3137 192.037 62C192.037 58.6863 189.351 56 186.037 56C182.723 56 180.037 58.6863 180.037 62C180.037 65.3137 182.723 68 186.037 68Z" fill="#ADADBC"/>
<path fill-rule="evenodd" clip-rule="evenodd" d="M186.037 66.3157C188.421 66.3157 190.353 64.3835 190.353 62C190.353 59.6165 188.421 57.6843 186.037 57.6843C183.654 57.6843 181.721 59.6165 181.721 62C181.721 64.3835 183.654 66.3157 186.037 66.3157ZM192.037 62C192.037 65.3137 189.351 68 186.037 68C182.723 68 180.037 65.3137 180.037 62C180.037 58.6863 182.723 56 186.037 56C189.351 56 192.037 58.6863 192.037 62Z" fill="#ADADBC"/>
</g>
<defs>
<linearGradient id="paint0_linear_619_2087" x1="126.403" y1="98.3136" x2="114.341" y2="98.7299" gradientUnits="userSpaceOnUse">
<stop stop-color="#00FF9D"/>
<stop offset="0.22" stop-color="#04F494"/>
<stop offset="0.64" stop-color="#0AE689"/>
<stop offset="1" stop-color="#0CE286"/>
</linearGradient>
<linearGradient id="paint1_linear_619_2087" x1="129.274" y1="109.803" x2="145.108" y2="152.367" gradientUnits="userSpaceOnUse">
<stop stop-color="#24D0C2"/>
<stop offset="0.05" stop-color="#22D1C0"/>
<stop offset="1" stop-color="#0CF0A3"/>
</linearGradient>
<clipPath id="clip0_619_2087">
<rect width="513.153" height="208.35" fill="white"/>
</clipPath>
</defs>
</svg>
